# xmcd
#
# Track frame offsets: 
#        183
#        17660
#        35065
#        53410
#        70215
#        90265
#        104873
#        126625
#        143568
#        165710
#        177570
#
# Disc length: 2579 seconds
#
# Revision: 3
# Processed by: cddbd v1.5.2PL0 Copyright (c) Steve Scherf et al.
# Submitted via: ExactAudioCopy v1.0b3
#
DISCID=990a110b
DTITLE=Bonnie Raitt - Nick Of Time
DYEAR=1989
DGENRE=Blues
TTITLE0=Nick Of Time
TTITLE1=Thing Called Love
TTITLE2=Love Letter
TTITLE3=Cry On My Shoulder
TTITLE4=Real Man
TTITLE5=Nobody's Girl
TTITLE6=Have A Heart
TTITLE7=Too Soon To Tell
TTITLE8=I Will Not Be Denied
TTITLE9=I Ain't Gonna Let You Break My Heart Again
TTITLE10=The Road's My Middle Name
EXTD=BONNIE RAITT - NICK OF TIME\n\nCapitol\nCDP 7912682
EXTT0=
EXTT1=
EXTT2=
EXTT3=
EXTT4=
EXTT5=
EXTT6=
EXTT7=
EXTT8=
EXTT9=
EXTT10=
PLAYORDER=
